<?xml version="1.0" encoding="UTF-8" ?>
<svg version="1.1" width="212" height="86" xmlns="http://www.w3.org/2000/svg" shape-rendering="crispEdges">
<rect x="0" y="0" width="104" height="2" fill="#282726" />
<rect x="104" y="0" width="4" height="2" fill="#0E0D0D" />
<rect x="108" y="0" width="104" height="2" fill="#282726" />
<rect x="0" y="2" width="102" height="2" fill="#282726" />
<rect x="102" y="2" width="2" height="2" fill="#0E0D0D" />
<rect x="104" y="2" width="4" height="4" fill="#A66235" />
<rect x="108" y="2" width="4" height="2" fill="#0E0D0D" />
<rect x="112" y="2" width="100" height="2" fill="#282726" />
<rect x="0" y="4" width="100" height="2" fill="#282726" />
<rect x="100" y="4" width="2" height="2" fill="#0E0D0D" />
<rect x="102" y="4" width="2" height="2" fill="#A66235" />
<rect x="108" y="4" width="4" height="4" fill="#A66235" />
<rect x="112" y="4" width="4" height="2" fill="#0E0D0D" />
<rect x="116" y="4" width="96" height="2" fill="#282726" />
<rect x="0" y="6" width="98" height="2" fill="#282726" />
<rect x="98" y="6" width="2" height="4" fill="#0E0D0D" />
<rect x="100" y="6" width="6" height="2" fill="#88442F" />
<rect x="106" y="6" width="2" height="2" fill="#A66235" />
<rect x="112" y="6" width="4" height="4" fill="#A66235" />
<rect x="116" y="6" width="2" height="2" fill="#0E0D0D" />
<rect x="118" y="6" width="94" height="2" fill="#282726" />
<rect x="0" y="8" width="96" height="52" fill="#282726" />
<rect x="96" y="8" width="2" height="4" fill="#0E0D0D" />
<rect x="100" y="8" width="4" height="4" fill="#693E35" />
<rect x="104" y="8" width="6" height="2" fill="#88442F" />
<rect x="110" y="8" width="2" height="2" fill="#A66235" />
<rect x="116" y="8" width="2" height="4" fill="#A66235" />
<rect x="118" y="8" width="4" height="2" fill="#0E0D0D" />
<rect x="122" y="8" width="90" height="2" fill="#282726" />
<rect x="98" y="10" width="2" height="2" fill="#693E35" />
<rect x="104" y="10" width="4" height="4" fill="#693E35" />
<rect x="108" y="10" width="6" height="2" fill="#88442F" />
<rect x="114" y="10" width="2" height="2" fill="#A66235" />
<rect x="118" y="10" width="4" height="4" fill="#A66235" />
<rect x="122" y="10" width="4" height="2" fill="#0E0D0D" />
<rect x="126" y="10" width="86" height="2" fill="#282726" />
<rect x="96" y="12" width="2" height="48" fill="#282726" />
<rect x="98" y="12" width="4" height="2" fill="#0E0D0D" />
<rect x="102" y="12" width="2" height="2" fill="#693E35" />
<rect x="108" y="12" width="4" height="4" fill="#693E35" />
<rect x="112" y="12" width="6" height="2" fill="#88442F" />
<rect x="122" y="12" width="4" height="4" fill="#A66235" />
<rect x="126" y="12" width="4" height="2" fill="#0E0D0D" />
<rect x="130" y="12" width="82" height="2" fill="#282726" />
<rect x="98" y="14" width="4" height="48" fill="#282726" />
<rect x="102" y="14" width="4" height="2" fill="#0E0D0D" />
<rect x="106" y="14" width="2" height="2" fill="#693E35" />
<rect x="112" y="14" width="4" height="6" fill="#693E35" />
<rect x="116" y="14" width="4" height="2" fill="#88442F" />
<rect x="120" y="14" width="2" height="2" fill="#A66235" />
<rect x="126" y="14" width="4" height="4" fill="#A66235" />
<rect x="130" y="14" width="2" height="2" fill="#0E0D0D" />
<rect x="132" y="14" width="80" height="2" fill="#282726" />
<rect x="102" y="16" width="2" height="70" fill="#282726" />
<rect x="104" y="16" width="6" height="2" fill="#0E0D0D" />
<rect x="110" y="16" width="2" height="2" fill="#693E35" />
<rect x="116" y="16" width="2" height="6" fill="#693E35" />
<rect x="118" y="16" width="6" height="2" fill="#88442F" />
<rect x="124" y="16" width="2" height="2" fill="#A66235" />
<rect x="130" y="16" width="2" height="4" fill="#A66235" />
<rect x="132" y="16" width="4" height="2" fill="#0E0D0D" />
<rect x="136" y="16" width="76" height="2" fill="#282726" />
<rect x="104" y="18" width="6" height="44" fill="#282726" />
<rect x="110" y="18" width="2" height="2" fill="#0E0D0D" />
<rect x="118" y="18" width="4" height="4" fill="#693E35" />
<rect x="122" y="18" width="6" height="2" fill="#88442F" />
<rect x="128" y="18" width="2" height="2" fill="#A66235" />
<rect x="132" y="18" width="4" height="4" fill="#A66235" />
<rect x="136" y="18" width="4" height="2" fill="#0E0D0D" />
<rect x="140" y="18" width="72" height="2" fill="#282726" />
<rect x="110" y="20" width="2" height="42" fill="#282726" />
<rect x="112" y="20" width="4" height="2" fill="#0E0D0D" />
<rect x="122" y="20" width="4" height="4" fill="#693E35" />
<rect x="126" y="20" width="6" height="2" fill="#88442F" />
<rect x="136" y="20" width="4" height="4" fill="#A66235" />
<rect x="140" y="20" width="4" height="2" fill="#0E0D0D" />
<rect x="144" y="20" width="68" height="2" fill="#282726" />
<rect x="112" y="22" width="4" height="40" fill="#282726" />
<rect x="116" y="22" width="4" height="2" fill="#0E0D0D" />
<rect x="120" y="22" width="2" height="2" fill="#693E35" />
<rect x="126" y="22" width="4" height="6" fill="#693E35" />
<rect x="130" y="22" width="6" height="2" fill="#88442F" />
<rect x="140" y="22" width="4" height="4" fill="#A66235" />
<rect x="144" y="22" width="2" height="2" fill="#0E0D0D" />
<rect x="146" y="22" width="66" height="2" fill="#282726" />
<rect x="116" y="24" width="4" height="38" fill="#282726" />
<rect x="120" y="24" width="4" height="2" fill="#0E0D0D" />
<rect x="124" y="24" width="2" height="2" fill="#693E35" />
<rect x="130" y="24" width="4" height="6" fill="#693E35" />
<rect x="134" y="24" width="6" height="2" fill="#88442F" />
<rect x="144" y="24" width="2" height="4" fill="#A66235" />
<rect x="146" y="24" width="4" height="2" fill="#0E0D0D" />
<rect x="150" y="24" width="62" height="2" fill="#282726" />
<rect x="120" y="26" width="4" height="36" fill="#282726" />
<rect x="124" y="26" width="2" height="2" fill="#0E0D0D" />
<rect x="134" y="26" width="4" height="6" fill="#693E35" />
<rect x="138" y="26" width="6" height="2" fill="#88442F" />
<rect x="146" y="26" width="4" height="4" fill="#A66235" />
<rect x="150" y="26" width="4" height="2" fill="#0E0D0D" />
<rect x="154" y="26" width="10" height="2" fill="#282726" />
<rect x="164" y="26" width="8" height="2" fill="#0E0D0D" />
<rect x="172" y="26" width="40" height="2" fill="#282726" />
<rect x="124" y="28" width="2" height="34" fill="#282726" />
<rect x="126" y="28" width="4" height="2" fill="#0E0D0D" />
<rect x="138" y="28" width="4" height="6" fill="#693E35" />
<rect x="142" y="28" width="4" height="2" fill="#88442F" />
<rect x="150" y="28" width="4" height="4" fill="#A66235" />
<rect x="154" y="28" width="2" height="2" fill="#0E0D0D" />
<rect x="156" y="28" width="8" height="2" fill="#282726" />
<rect x="164" y="28" width="2" height="4" fill="#0E0D0D" />
<rect x="166" y="28" width="4" height="6" fill="#D1D2D4" />
<rect x="170" y="28" width="6" height="2" fill="#0E0D0D" />
<rect x="176" y="28" width="36" height="2" fill="#282726" />
<rect x="126" y="30" width="4" height="32" fill="#282726" />
<rect x="130" y="30" width="4" height="2" fill="#0E0D0D" />
<rect x="142" y="30" width="2" height="6" fill="#693E35" />
<rect x="144" y="30" width="6" height="2" fill="#88442F" />
<rect x="154" y="30" width="2" height="4" fill="#A66235" />
<rect x="156" y="30" width="4" height="2" fill="#0E0D0D" />
<rect x="160" y="30" width="2" height="2" fill="#282726" />
<rect x="162" y="30" width="2" height="6" fill="#0E0D0D" />
<rect x="170" y="30" width="4" height="4" fill="#D1D2D4" />
<rect x="174" y="30" width="6" height="2" fill="#0E0D0D" />
<rect x="180" y="30" width="12" height="2" fill="#282726" />
<rect x="192" y="30" width="2" height="2" fill="#C5AB15" />
<rect x="194" y="30" width="18" height="4" fill="#282726" />
<rect x="130" y="32" width="4" height="30" fill="#282726" />
<rect x="134" y="32" width="4" height="2" fill="#0E0D0D" />
<rect x="144" y="32" width="4" height="6" fill="#693E35" />
<rect x="148" y="32" width="4" height="2" fill="#88442F" />
<rect x="152" y="32" width="2" height="2" fill="#A66235" />
<rect x="156" y="32" width="4" height="4" fill="#A66235" />
<rect x="160" y="32" width="2" height="6" fill="#0E0D0D" />
<rect x="164" y="32" width="2" height="6" fill="#D1D2D4" />
<rect x="174" y="32" width="4" height="4" fill="#D1D2D4" />
<rect x="178" y="32" width="6" height="2" fill="#0E0D0D" />
<rect x="184" y="32" width="6" height="2" fill="#282726" />
<rect x="190" y="32" width="2" height="2" fill="#C58815" />
<rect x="192" y="32" width="2" height="6" fill="#282726" />
<rect x="134" y="34" width="4" height="28" fill="#282726" />
<rect x="138" y="34" width="2" height="2" fill="#0E0D0D" />
<rect x="140" y="34" width="2" height="2" fill="#693E35" />
<rect x="148" y="34" width="2" height="6" fill="#693E35" />
<rect x="150" y="34" width="6" height="2" fill="#88442F" />
<rect x="166" y="34" width="2" height="2" fill="#D1D2D4" />
<rect x="168" y="34" width="6" height="14" fill="#A7A6B4" />
<rect x="178" y="34" width="4" height="4" fill="#D1D2D4" />
<rect x="182" y="34" width="4" height="2" fill="#0E0D0D" />
<rect x="186" y="34" width="6" height="2" fill="#282726" />
<rect x="194" y="34" width="6" height="2" fill="#282726" />
<rect x="200" y="34" width="2" height="2" fill="#C5AB15" />
<rect x="202" y="34" width="10" height="6" fill="#282726" />
<rect x="138" y="36" width="2" height="26" fill="#282726" />
<rect x="140" y="36" width="4" height="2" fill="#0E0D0D" />
<rect x="150" y="36" width="2" height="6" fill="#693E35" />
<rect x="152" y="36" width="6" height="2" fill="#88442F" />
<rect x="158" y="36" width="2" height="4" fill="#0E0D0D" />
<rect x="162" y="36" width="2" height="6" fill="#D1D2D4" />
<rect x="166" y="36" width="2" height="18" fill="#A7A6B4" />
<rect x="174" y="36" width="4" height="6" fill="#A7A6B4" />
<rect x="182" y="36" width="2" height="2" fill="#D1D2D4" />
<rect x="184" y="36" width="4" height="4" fill="#0E0D0D" />
<rect x="188" y="36" width="4" height="4" fill="#282726" />
<rect x="194" y="36" width="4" height="8" fill="#282726" />
<rect x="198" y="36" width="2" height="2" fill="#C58815" />
<rect x="200" y="36" width="2" height="14" fill="#282726" />
<rect x="140" y="38" width="4" height="24" fill="#282726" />
<rect x="144" y="38" width="2" height="2" fill="#0E0D0D" />
<rect x="146" y="38" width="2" height="2" fill="#693E35" />
<rect x="152" y="38" width="2" height="4" fill="#693E35" />
<rect x="154" y="38" width="4" height="2" fill="#88442F" />
<rect x="160" y="38" width="2" height="6" fill="#D1D2D4" />
<rect x="164" y="38" width="2" height="16" fill="#A7A6B4" />
<rect x="178" y="38" width="6" height="4" fill="#7C808C" />
<rect x="192" y="38" width="2" height="2" fill="#C5AB15" />
<rect x="198" y="38" width="2" height="4" fill="#282726" />
<rect x="144" y="40" width="2" height="22" fill="#282726" />
<rect x="146" y="40" width="4" height="2" fill="#0E0D0D" />
<rect x="154" y="40" width="2" height="2" fill="#693E35" />
<rect x="156" y="40" width="2" height="4" fill="#0E0D0D" />
<rect x="158" y="40" width="2" height="8" fill="#D1D2D4" />
<rect x="184" y="40" width="2" height="4" fill="#0E0D0D" />
<rect x="186" y="40" width="4" height="8" fill="#282726" />
<rect x="190" y="40" width="2" height="2" fill="#C58815" />
<rect x="192" y="40" width="2" height="14" fill="#282726" />
<rect x="202" y="40" width="2" height="2" fill="#282726" />
<rect x="204" y="40" width="2" height="2" fill="#C5AB15" />
<rect x="206" y="40" width="6" height="10" fill="#282726" />
<rect x="146" y="42" width="4" height="8" fill="#282726" />
<rect x="150" y="42" width="6" height="2" fill="#0E0D0D" />
<rect x="162" y="42" width="2" height="10" fill="#A7A6B4" />
<rect x="174" y="42" width="2" height="4" fill="#A7A6B4" />
<rect x="176" y="42" width="6" height="4" fill="#7C808C" />
<rect x="182" y="42" width="2" height="6" fill="#0E0D0D" />
<rect x="190" y="42" width="2" height="4" fill="#282726" />
<rect x="198" y="42" width="2" height="2" fill="#C5AB15" />
<rect x="202" y="42" width="2" height="2" fill="#C58815" />
<rect x="204" y="42" width="2" height="6" fill="#282726" />
<rect x="150" y="44" width="2" height="4" fill="#282726" />
<rect x="152" y="44" width="4" height="2" fill="#0E0D0D" />
<rect x="156" y="44" width="2" height="6" fill="#D1D2D4" />
<rect x="160" y="44" width="2" height="8" fill="#A7A6B4" />
<rect x="184" y="44" width="2" height="12" fill="#282726" />
<rect x="194" y="44" width="2" height="8" fill="#282726" />
<rect x="196" y="44" width="2" height="2" fill="#C58815" />
<rect x="198" y="44" width="2" height="6" fill="#282726" />
<rect x="202" y="44" width="2" height="4" fill="#282726" />
<rect x="152" y="46" width="2" height="4" fill="#0E0D0D" />
<rect x="154" y="46" width="2" height="4" fill="#D1D2D4" />
<rect x="174" y="46" width="6" height="2" fill="#7C808C" />
<rect x="180" y="46" width="2" height="4" fill="#0E0D0D" />
<rect x="190" y="46" width="2" height="2" fill="#C5AB15" />
<rect x="196" y="46" width="2" height="12" fill="#282726" />
<rect x="150" y="48" width="2" height="4" fill="#0E0D0D" />
<rect x="158" y="48" width="2" height="4" fill="#A7A6B4" />
<rect x="168" y="48" width="4" height="2" fill="#A7A6B4" />
<rect x="172" y="48" width="6" height="2" fill="#7C808C" />
<rect x="178" y="48" width="2" height="4" fill="#0E0D0D" />
<rect x="182" y="48" width="2" height="4" fill="#A66235" />
<rect x="186" y="48" width="2" height="14" fill="#282726" />
<rect x="188" y="48" width="2" height="2" fill="#C58815" />
<rect x="190" y="48" width="2" height="14" fill="#282726" />
<rect x="202" y="48" width="4" height="2" fill="#C5AB15" />
<rect x="146" y="50" width="2" height="6" fill="#282726" />
<rect x="148" y="50" width="2" height="6" fill="#0E0D0D" />
<rect x="152" y="50" width="6" height="4" fill="#7C808C" />
<rect x="168" y="50" width="2" height="2" fill="#A7A6B4" />
<rect x="170" y="50" width="6" height="4" fill="#7C808C" />
<rect x="176" y="50" width="2" height="6" fill="#0E0D0D" />
<rect x="180" y="50" width="2" height="4" fill="#A66235" />
<rect x="188" y="50" width="2" height="12" fill="#282726" />
<rect x="198" y="50" width="4" height="2" fill="#C58815" />
<rect x="202" y="50" width="6" height="2" fill="#282726" />
<rect x="208" y="50" width="2" height="2" fill="#C5AB15" />
<rect x="210" y="50" width="2" height="6" fill="#282726" />
<rect x="150" y="52" width="2" height="2" fill="#7C808C" />
<rect x="158" y="52" width="6" height="6" fill="#7C808C" />
<rect x="168" y="52" width="2" height="10" fill="#7C808C" />
<rect x="178" y="52" width="2" height="4" fill="#A66235" />
<rect x="182" y="52" width="2" height="6" fill="#282726" />
<rect x="194" y="52" width="2" height="2" fill="#C5AB15" />
<rect x="198" y="52" width="8" height="4" fill="#282726" />
<rect x="206" y="52" width="2" height="2" fill="#C58815" />
<rect x="208" y="52" width="2" height="4" fill="#282726" />
<rect x="150" y="54" width="4" height="2" fill="#0E0D0D" />
<rect x="154" y="54" width="4" height="2" fill="#7C808C" />
<rect x="164" y="54" width="4" height="8" fill="#7C808C" />
<rect x="170" y="54" width="4" height="2" fill="#7C808C" />
<rect x="174" y="54" width="2" height="4" fill="#0E0D0D" />
<rect x="180" y="54" width="2" height="8" fill="#282726" />
<rect x="192" y="54" width="2" height="2" fill="#C58815" />
<rect x="194" y="54" width="2" height="4" fill="#282726" />
<rect x="206" y="54" width="2" height="4" fill="#282726" />
<rect x="146" y="56" width="4" height="2" fill="#C5AB15" />
<rect x="150" y="56" width="2" height="2" fill="#282726" />
<rect x="152" y="56" width="6" height="2" fill="#0E0D0D" />
<rect x="170" y="56" width="2" height="4" fill="#7C808C" />
<rect x="172" y="56" width="2" height="6" fill="#0E0D0D" />
<rect x="176" y="56" width="4" height="6" fill="#282726" />
<rect x="184" y="56" width="2" height="2" fill="#C5AB15" />
<rect x="192" y="56" width="2" height="6" fill="#282726" />
<rect x="198" y="56" width="4" height="2" fill="#C5AB15" />
<rect x="202" y="56" width="4" height="2" fill="#282726" />
<rect x="208" y="56" width="4" height="2" fill="#C5AB15" />
<rect x="146" y="58" width="4" height="4" fill="#282726" />
<rect x="150" y="58" width="4" height="2" fill="#C58815" />
<rect x="154" y="58" width="2" height="4" fill="#282726" />
<rect x="156" y="58" width="6" height="2" fill="#0E0D0D" />
<rect x="162" y="58" width="2" height="2" fill="#7C808C" />
<rect x="174" y="58" width="2" height="4" fill="#282726" />
<rect x="182" y="58" width="2" height="2" fill="#C58815" />
<rect x="184" y="58" width="2" height="4" fill="#282726" />
<rect x="194" y="58" width="4" height="2" fill="#C58815" />
<rect x="198" y="58" width="6" height="28" fill="#282726" />
<rect x="204" y="58" width="4" height="2" fill="#C58815" />
<rect x="208" y="58" width="4" height="28" fill="#282726" />
<rect x="0" y="60" width="4" height="2" fill="#282726" />
<rect x="4" y="60" width="12" height="2" fill="#50210B" />
<rect x="16" y="60" width="2" height="4" fill="#411B09" />
<rect x="18" y="60" width="2" height="14" fill="#50210B" />
<rect x="20" y="60" width="10" height="2" fill="#6F2D0F" />
<rect x="30" y="60" width="10" height="2" fill="#4C200B" />
<rect x="40" y="60" width="6" height="2" fill="#6F2D0F" />
<rect x="46" y="60" width="2" height="2" fill="#411B09" />
<rect x="48" y="60" width="4" height="2" fill="#6F2D0F" />
<rect x="52" y="60" width="4" height="2" fill="#4C200B" />
<rect x="56" y="60" width="34" height="2" fill="#6F2D0F" />
<rect x="90" y="60" width="2" height="2" fill="#4C200B" />
<rect x="92" y="60" width="6" height="2" fill="#6F2D0F" />
<rect x="150" y="60" width="4" height="2" fill="#282726" />
<rect x="156" y="60" width="4" height="2" fill="#282726" />
<rect x="160" y="60" width="4" height="2" fill="#0E0D0D" />
<rect x="170" y="60" width="2" height="2" fill="#0E0D0D" />
<rect x="182" y="60" width="2" height="2" fill="#282726" />
<rect x="194" y="60" width="4" height="2" fill="#282726" />
<rect x="204" y="60" width="4" height="26" fill="#282726" />
<rect x="0" y="62" width="2" height="2" fill="#282726" />
<rect x="2" y="62" width="4" height="2" fill="#50210B" />
<rect x="6" y="62" width="8" height="4" fill="#0E0D0D" />
<rect x="14" y="62" width="2" height="2" fill="#50210B" />
<rect x="20" y="62" width="4" height="2" fill="#6F2D0F" />
<rect x="24" y="62" width="14" height="4" fill="#0E0D0D" />
<rect x="38" y="62" width="2" height="8" fill="#4C200B" />
<rect x="40" y="62" width="4" height="2" fill="#6F2D0F" />
<rect x="44" y="62" width="2" height="2" fill="#411B09" />
<rect x="46" y="62" width="8" height="4" fill="#0E0D0D" />
<rect x="54" y="62" width="10" height="2" fill="#6F2D0F" />
<rect x="64" y="62" width="2" height="2" fill="#4C200B" />
<rect x="66" y="62" width="2" height="2" fill="#6F2D0F" />
<rect x="68" y="62" width="6" height="4" fill="#0E0D0D" />
<rect x="74" y="62" width="10" height="2" fill="#6F2D0F" />
<rect x="84" y="62" width="4" height="20" fill="#0E0D0D" />
<rect x="88" y="62" width="6" height="2" fill="#6F2D0F" />
<rect x="94" y="62" width="4" height="4" fill="#0E0D0D" />
<rect x="98" y="62" width="2" height="8" fill="#6F2D0F" />
<rect x="100" y="62" width="2" height="2" fill="#282726" />
<rect x="104" y="62" width="4" height="2" fill="#282726" />
<rect x="108" y="62" width="10" height="2" fill="#6F2D0F" />
<rect x="118" y="62" width="8" height="2" fill="#8A491D" />
<rect x="126" y="62" width="2" height="2" fill="#6F2D0F" />
<rect x="128" y="62" width="8" height="2" fill="#8A491D" />
<rect x="136" y="62" width="10" height="2" fill="#A8692D" />
<rect x="146" y="62" width="2" height="2" fill="#8A491D" />
<rect x="148" y="62" width="2" height="4" fill="#A8692D" />
<rect x="150" y="62" width="10" height="2" fill="#C06522" />
<rect x="160" y="62" width="8" height="2" fill="#A8692D" />
<rect x="168" y="62" width="4" height="2" fill="#F8BE59" />
<rect x="172" y="62" width="2" height="2" fill="#C06522" />
<rect x="174" y="62" width="6" height="2" fill="#F8BE59" />
<rect x="180" y="62" width="10" height="2" fill="#F4D091" />
<rect x="190" y="62" width="8" height="2" fill="#F7F7F7" />
<rect x="0" y="64" width="4" height="2" fill="#50210B" />
<rect x="4" y="64" width="2" height="10" fill="#0E0D0D" />
<rect x="14" y="64" width="2" height="6" fill="#0E0D0D" />
<rect x="16" y="64" width="2" height="2" fill="#50210B" />
<rect x="20" y="64" width="4" height="6" fill="#4C200B" />
<rect x="40" y="64" width="2" height="4" fill="#4C200B" />
<rect x="42" y="64" width="2" height="2" fill="#6F2D0F" />
<rect x="44" y="64" width="2" height="18" fill="#0E0D0D" />
<rect x="54" y="64" width="2" height="18" fill="#0E0D0D" />
<rect x="56" y="64" width="4" height="2" fill="#6F2D0F" />
<rect x="60" y="64" width="2" height="4" fill="#4C200B" />
<rect x="62" y="64" width="4" height="2" fill="#6F2D0F" />
<rect x="66" y="64" width="2" height="16" fill="#0E0D0D" />
<rect x="74" y="64" width="2" height="6" fill="#0E0D0D" />
<rect x="76" y="64" width="4" height="2" fill="#6F2D0F" />
<rect x="80" y="64" width="2" height="2" fill="#4C200B" />
<rect x="82" y="64" width="2" height="22" fill="#6F2D0F" />
<rect x="88" y="64" width="4" height="2" fill="#6F2D0F" />
<rect x="92" y="64" width="2" height="6" fill="#0E0D0D" />
<rect x="100" y="64" width="2" height="6" fill="#6F2D0F" />
<rect x="104" y="64" width="2" height="22" fill="#282726" />
<rect x="106" y="64" width="4" height="2" fill="#6F2D0F" />
<rect x="110" y="64" width="14" height="4" fill="#0E0D0D" />
<rect x="124" y="64" width="6" height="2" fill="#8A491D" />
<rect x="130" y="64" width="4" height="18" fill="#0E0D0D" />
<rect x="134" y="64" width="4" height="2" fill="#8A491D" />
<rect x="138" y="64" width="4" height="2" fill="#A8692D" />
<rect x="142" y="64" width="4" height="18" fill="#0E0D0D" />
<rect x="146" y="64" width="2" height="6" fill="#A8692D" />
<rect x="150" y="64" width="6" height="18" fill="#0E0D0D" />
<rect x="156" y="64" width="4" height="6" fill="#C06522" />
<rect x="160" y="64" width="14" height="4" fill="#0E0D0D" />
<rect x="174" y="64" width="4" height="2" fill="#F8BE59" />
<rect x="178" y="64" width="6" height="18" fill="#0E0D0D" />
<rect x="184" y="64" width="4" height="2" fill="#F4D091" />
<rect x="188" y="64" width="2" height="2" fill="#F7F7F7" />
<rect x="190" y="64" width="6" height="18" fill="#0E0D0D" />
<rect x="196" y="64" width="2" height="18" fill="#F7F7F7" />
<rect x="0" y="66" width="2" height="10" fill="#50210B" />
<rect x="2" y="66" width="2" height="6" fill="#0E0D0D" />
<rect x="6" y="66" width="2" height="2" fill="#0E0D0D" />
<rect x="8" y="66" width="4" height="2" fill="#50210B" />
<rect x="12" y="66" width="2" height="2" fill="#0E0D0D" />
<rect x="16" y="66" width="2" height="4" fill="#0E0D0D" />
<rect x="24" y="66" width="4" height="2" fill="#6F2D0F" />
<rect x="28" y="66" width="6" height="16" fill="#0E0D0D" />
<rect x="34" y="66" width="2" height="2" fill="#6F2D0F" />
<rect x="36" y="66" width="2" height="4" fill="#4C200B" />
<rect x="42" y="66" width="2" height="12" fill="#0E0D0D" />
<rect x="46" y="66" width="2" height="2" fill="#0E0D0D" />
<rect x="48" y="66" width="4" height="2" fill="#6F2D0F" />
<rect x="52" y="66" width="2" height="2" fill="#0E0D0D" />
<rect x="56" y="66" width="2" height="12" fill="#0E0D0D" />
<rect x="58" y="66" width="2" height="14" fill="#6F2D0F" />
<rect x="62" y="66" width="2" height="18" fill="#6F2D0F" />
<rect x="64" y="66" width="2" height="12" fill="#0E0D0D" />
<rect x="68" y="66" width="2" height="2" fill="#0E0D0D" />
<rect x="70" y="66" width="2" height="12" fill="#6F2D0F" />
<rect x="72" y="66" width="2" height="2" fill="#0E0D0D" />
<rect x="76" y="66" width="2" height="4" fill="#0E0D0D" />
<rect x="78" y="66" width="4" height="8" fill="#6F2D0F" />
<rect x="88" y="66" width="2" height="2" fill="#6F2D0F" />
<rect x="90" y="66" width="2" height="10" fill="#0E0D0D" />
<rect x="94" y="66" width="2" height="2" fill="#0E0D0D" />
<rect x="96" y="66" width="2" height="10" fill="#6F2D0F" />
<rect x="106" y="66" width="2" height="16" fill="#6F2D0F" />
<rect x="108" y="66" width="2" height="6" fill="#0E0D0D" />
<rect x="124" y="66" width="2" height="4" fill="#0E0D0D" />
<rect x="126" y="66" width="4" height="16" fill="#8A491D" />
<rect x="134" y="66" width="2" height="6" fill="#0E0D0D" />
<rect x="136" y="66" width="2" height="2" fill="#8A491D" />
<rect x="138" y="66" width="2" height="2" fill="#A8692D" />
<rect x="140" y="66" width="2" height="6" fill="#0E0D0D" />
<rect x="148" y="66" width="2" height="4" fill="#C06522" />
<rect x="174" y="66" width="2" height="4" fill="#F8BE59" />
<rect x="176" y="66" width="2" height="6" fill="#F4D091" />
<rect x="184" y="66" width="2" height="4" fill="#F4D091" />
<rect x="186" y="66" width="4" height="2" fill="#F4E3C6" />
<rect x="6" y="68" width="4" height="2" fill="#50210B" />
<rect x="10" y="68" width="2" height="4" fill="#411B09" />
<rect x="12" y="68" width="2" height="4" fill="#50210B" />
<rect x="24" y="68" width="2" height="18" fill="#4C200B" />
<rect x="26" y="68" width="2" height="4" fill="#6F2D0F" />
<rect x="34" y="68" width="2" height="2" fill="#4C200B" />
<rect x="40" y="68" width="2" height="14" fill="#6F2D0F" />
<rect x="46" y="68" width="6" height="2" fill="#4C200B" />
<rect x="52" y="68" width="2" height="6" fill="#6F2D0F" />
<rect x="60" y="68" width="2" height="4" fill="#6F2D0F" />
<rect x="68" y="68" width="2" height="8" fill="#6F2D0F" />
<rect x="72" y="68" width="2" height="4" fill="#6F2D0F" />
<rect x="88" y="68" width="2" height="6" fill="#0E0D0D" />
<rect x="94" y="68" width="2" height="6" fill="#6F2D0F" />
<rect x="110" y="68" width="2" height="6" fill="#0E0D0D" />
<rect x="112" y="68" width="6" height="2" fill="#6F2D0F" />
<rect x="118" y="68" width="4" height="2" fill="#8A491D" />
<rect x="122" y="68" width="2" height="2" fill="#0E0D0D" />
<rect x="136" y="68" width="4" height="6" fill="#0E0D0D" />
<rect x="160" y="68" width="2" height="2" fill="#A8692D" />
<rect x="162" y="68" width="2" height="10" fill="#C06522" />
<rect x="164" y="68" width="6" height="14" fill="#0E0D0D" />
<rect x="170" y="68" width="4" height="4" fill="#F8BE59" />
<rect x="186" y="68" width="2" height="2" fill="#F4E3C6" />
<rect x="188" y="68" width="2" height="2" fill="#F7F7F7" />
<rect x="6" y="70" width="2" height="4" fill="#0E0D0D" />
<rect x="8" y="70" width="2" height="2" fill="#411B09" />
<rect x="14" y="70" width="4" height="2" fill="#50210B" />
<rect x="20" y="70" width="2" height="14" fill="#50210B" />
<rect x="22" y="70" width="2" height="12" fill="#4C200B" />
<rect x="34" y="70" width="6" height="2" fill="#6F2D0F" />
<rect x="46" y="70" width="6" height="4" fill="#6F2D0F" />
<rect x="74" y="70" width="4" height="4" fill="#6F2D0F" />
<rect x="92" y="70" width="2" height="2" fill="#6F2D0F" />
<rect x="98" y="70" width="2" height="2" fill="#4C200B" />
<rect x="100" y="70" width="2" height="6" fill="#282726" />
<rect x="112" y="70" width="4" height="4" fill="#0E0D0D" />
<rect x="116" y="70" width="4" height="2" fill="#8A491D" />
<rect x="120" y="70" width="2" height="2" fill="#6F2D0F" />
<rect x="122" y="70" width="4" height="2" fill="#8A491D" />
<rect x="146" y="70" width="2" height="4" fill="#C06522" />
<rect x="148" y="70" width="2" height="2" fill="#A8692D" />
<rect x="156" y="70" width="2" height="16" fill="#C06522" />
<rect x="158" y="70" width="2" height="2" fill="#A8692D" />
<rect x="160" y="70" width="2" height="12" fill="#C06522" />
<rect x="174" y="70" width="2" height="4" fill="#F4D091" />
<rect x="184" y="70" width="6" height="4" fill="#0E0D0D" />
<rect x="2" y="72" width="2" height="6" fill="#50210B" />
<rect x="8" y="72" width="8" height="2" fill="#0E0D0D" />
<rect x="16" y="72" width="2" height="2" fill="#50210B" />
<rect x="26" y="72" width="2" height="10" fill="#61280E" />
<rect x="34" y="72" width="4" height="6" fill="#6F2D0F" />
<rect x="38" y="72" width="2" height="14" fill="#4C200B" />
<rect x="60" y="72" width="2" height="4" fill="#4C200B" />
<rect x="72" y="72" width="2" height="2" fill="#4C200B" />
<rect x="92" y="72" width="2" height="6" fill="#0E0D0D" />
<rect x="98" y="72" width="2" height="14" fill="#6F2D0F" />
<rect x="108" y="72" width="2" height="4" fill="#6F2D0F" />
<rect x="116" y="72" width="8" height="4" fill="#0E0D0D" />
<rect x="124" y="72" width="2" height="2" fill="#8A491D" />
<rect x="134" y="72" width="2" height="14" fill="#A8692D" />
<rect x="140" y="72" width="2" height="14" fill="#A8692D" />
<rect x="148" y="72" width="2" height="2" fill="#C06522" />
<rect x="158" y="72" width="2" height="4" fill="#C06522" />
<rect x="170" y="72" width="2" height="12" fill="#F8BE59" />
<rect x="172" y="72" width="2" height="6" fill="#F4D091" />
<rect x="176" y="72" width="2" height="4" fill="#F8BE59" />
<rect x="4" y="74" width="6" height="2" fill="#50210B" />
<rect x="10" y="74" width="8" height="2" fill="#0E0D0D" />
<rect x="18" y="74" width="2" height="2" fill="#411B09" />
<rect x="46" y="74" width="4" height="2" fill="#6F2D0F" />
<rect x="50" y="74" width="4" height="2" fill="#4C200B" />
<rect x="72" y="74" width="2" height="4" fill="#6F2D0F" />
<rect x="74" y="74" width="4" height="4" fill="#0E0D0D" />
<rect x="78" y="74" width="2" height="2" fill="#4C200B" />
<rect x="80" y="74" width="2" height="12" fill="#6F2D0F" />
<rect x="88" y="74" width="2" height="12" fill="#6F2D0F" />
<rect x="94" y="74" width="2" height="8" fill="#0E0D0D" />
<rect x="110" y="74" width="6" height="2" fill="#6F2D0F" />
<rect x="124" y="74" width="2" height="4" fill="#0E0D0D" />
<rect x="136" y="74" width="4" height="2" fill="#A8692D" />
<rect x="146" y="74" width="2" height="2" fill="#8A491D" />
<rect x="148" y="74" width="2" height="2" fill="#A8692D" />
<rect x="174" y="74" width="2" height="2" fill="#F8BE59" />
<rect x="184" y="74" width="2" height="2" fill="#F8BE59" />
<rect x="186" y="74" width="4" height="2" fill="#F4D091" />
<rect x="0" y="76" width="2" height="2" fill="#411B09" />
<rect x="4" y="76" width="4" height="6" fill="#0E0D0D" />
<rect x="8" y="76" width="2" height="2" fill="#411B09" />
<rect x="10" y="76" width="4" height="2" fill="#50210B" />
<rect x="14" y="76" width="4" height="4" fill="#0E0D0D" />
<rect x="18" y="76" width="2" height="10" fill="#50210B" />
<rect x="46" y="76" width="2" height="6" fill="#0E0D0D" />
<rect x="48" y="76" width="2" height="2" fill="#4C200B" />
<rect x="50" y="76" width="2" height="2" fill="#6F2D0F" />
<rect x="52" y="76" width="2" height="6" fill="#0E0D0D" />
<rect x="60" y="76" width="2" height="6" fill="#6F2D0F" />
<rect x="68" y="76" width="2" height="6" fill="#0E0D0D" />
<rect x="78" y="76" width="2" height="6" fill="#6F2D0F" />
<rect x="90" y="76" width="2" height="6" fill="#6F2D0F" />
<rect x="96" y="76" width="2" height="6" fill="#0E0D0D" />
<rect x="100" y="76" width="2" height="10" fill="#6F2D0F" />
<rect x="108" y="76" width="4" height="4" fill="#0E0D0D" />
<rect x="112" y="76" width="8" height="2" fill="#6F2D0F" />
<rect x="120" y="76" width="4" height="6" fill="#0E0D0D" />
<rect x="136" y="76" width="2" height="10" fill="#A8692D" />
<rect x="138" y="76" width="2" height="2" fill="#8A491D" />
<rect x="146" y="76" width="2" height="2" fill="#A8692D" />
<rect x="148" y="76" width="2" height="4" fill="#C06522" />
<rect x="158" y="76" width="2" height="6" fill="#A8692D" />
<rect x="174" y="76" width="4" height="6" fill="#F4D091" />
<rect x="184" y="76" width="2" height="2" fill="#F4D091" />
<rect x="186" y="76" width="4" height="2" fill="#F4E3C6" />
<rect x="0" y="78" width="2" height="6" fill="#50210B" />
<rect x="2" y="78" width="2" height="4" fill="#0E0D0D" />
<rect x="8" y="78" width="6" height="6" fill="#0E0D0D" />
<rect x="34" y="78" width="2" height="2" fill="#6F2D0F" />
<rect x="36" y="78" width="2" height="8" fill="#4C200B" />
<rect x="42" y="78" width="2" height="6" fill="#6F2D0F" />
<rect x="48" y="78" width="4" height="4" fill="#0E0D0D" />
<rect x="56" y="78" width="2" height="4" fill="#6F2D0F" />
<rect x="64" y="78" width="2" height="6" fill="#6F2D0F" />
<rect x="70" y="78" width="6" height="4" fill="#0E0D0D" />
<rect x="76" y="78" width="2" height="8" fill="#6F2D0F" />
<rect x="92" y="78" width="2" height="8" fill="#6F2D0F" />
<rect x="112" y="78" width="8" height="4" fill="#0E0D0D" />
<rect x="124" y="78" width="2" height="6" fill="#8A491D" />
<rect x="138" y="78" width="2" height="4" fill="#A8692D" />
<rect x="146" y="78" width="2" height="6" fill="#C06522" />
<rect x="162" y="78" width="2" height="2" fill="#F8BE59" />
<rect x="172" y="78" width="2" height="2" fill="#F8BE59" />
<rect x="184" y="78" width="2" height="4" fill="#F8BE59" />
<rect x="186" y="78" width="2" height="8" fill="#F4E3C6" />
<rect x="188" y="78" width="2" height="2" fill="#F4D091" />
<rect x="14" y="80" width="2" height="2" fill="#0E0D0D" />
<rect x="16" y="80" width="2" height="6" fill="#50210B" />
<rect x="34" y="80" width="2" height="6" fill="#4C200B" />
<rect x="58" y="80" width="2" height="6" fill="#4C200B" />
<rect x="66" y="80" width="2" height="6" fill="#6F2D0F" />
<rect x="108" y="80" width="2" height="4" fill="#6F2D0F" />
<rect x="110" y="80" width="2" height="2" fill="#0E0D0D" />
<rect x="148" y="80" width="2" height="2" fill="#A8692D" />
<rect x="162" y="80" width="2" height="2" fill="#C06522" />
<rect x="172" y="80" width="2" height="4" fill="#F4D091" />
<rect x="188" y="80" width="2" height="4" fill="#F4E3C6" />
<rect x="2" y="82" width="2" height="2" fill="#411B09" />
<rect x="4" y="82" width="2" height="4" fill="#50210B" />
<rect x="6" y="82" width="2" height="2" fill="#0E0D0D" />
<rect x="14" y="82" width="2" height="4" fill="#50210B" />
<rect x="22" y="82" width="2" height="2" fill="#50210B" />
<rect x="26" y="82" width="8" height="4" fill="#4C200B" />
<rect x="40" y="82" width="2" height="4" fill="#4C200B" />
<rect x="44" y="82" width="12" height="2" fill="#6F2D0F" />
<rect x="56" y="82" width="2" height="4" fill="#4C200B" />
<rect x="60" y="82" width="2" height="4" fill="#4C200B" />
<rect x="68" y="82" width="8" height="4" fill="#6F2D0F" />
<rect x="78" y="82" width="2" height="2" fill="#4C200B" />
<rect x="84" y="82" width="4" height="2" fill="#6F2D0F" />
<rect x="90" y="82" width="2" height="2" fill="#4C200B" />
<rect x="94" y="82" width="4" height="4" fill="#6F2D0F" />
<rect x="106" y="82" width="2" height="4" fill="#282726" />
<rect x="110" y="82" width="6" height="2" fill="#6F2D0F" />
<rect x="116" y="82" width="8" height="2" fill="#8A491D" />
<rect x="126" y="82" width="8" height="2" fill="#A8692D" />
<rect x="138" y="82" width="2" height="2" fill="#8A491D" />
<rect x="142" y="82" width="2" height="2" fill="#A8692D" />
<rect x="144" y="82" width="2" height="2" fill="#C06522" />
<rect x="148" y="82" width="8" height="4" fill="#C06522" />
<rect x="158" y="82" width="2" height="2" fill="#C06522" />
<rect x="160" y="82" width="10" height="2" fill="#F8BE59" />
<rect x="174" y="82" width="2" height="4" fill="#F4D091" />
<rect x="176" y="82" width="2" height="4" fill="#F8BE59" />
<rect x="178" y="82" width="8" height="4" fill="#F4D091" />
<rect x="190" y="82" width="2" height="2" fill="#F4E3C6" />
<rect x="192" y="82" width="4" height="2" fill="#F7F7F7" />
<rect x="196" y="82" width="2" height="2" fill="#F4E3C6" />
<rect x="0" y="84" width="2" height="2" fill="#282726" />
<rect x="2" y="84" width="2" height="2" fill="#50210B" />
<rect x="6" y="84" width="4" height="2" fill="#50210B" />
<rect x="10" y="84" width="2" height="2" fill="#411B09" />
<rect x="12" y="84" width="2" height="2" fill="#50210B" />
<rect x="20" y="84" width="2" height="2" fill="#411B09" />
<rect x="22" y="84" width="2" height="2" fill="#4C200B" />
<rect x="42" y="84" width="4" height="2" fill="#4C200B" />
<rect x="46" y="84" width="2" height="2" fill="#6F2D0F" />
<rect x="48" y="84" width="2" height="2" fill="#4C200B" />
<rect x="50" y="84" width="4" height="2" fill="#6F2D0F" />
<rect x="54" y="84" width="2" height="2" fill="#4C200B" />
<rect x="62" y="84" width="4" height="2" fill="#4C200B" />
<rect x="78" y="84" width="2" height="2" fill="#6F2D0F" />
<rect x="84" y="84" width="2" height="2" fill="#6F2D0F" />
<rect x="86" y="84" width="2" height="2" fill="#4C200B" />
<rect x="90" y="84" width="2" height="2" fill="#6F2D0F" />
<rect x="108" y="84" width="2" height="2" fill="#282726" />
<rect x="110" y="84" width="4" height="2" fill="#6F2D0F" />
<rect x="114" y="84" width="4" height="2" fill="#8A491D" />
<rect x="118" y="84" width="2" height="2" fill="#6F2D0F" />
<rect x="120" y="84" width="4" height="2" fill="#8A491D" />
<rect x="124" y="84" width="2" height="2" fill="#A8692D" />
<rect x="126" y="84" width="2" height="2" fill="#8A491D" />
<rect x="128" y="84" width="4" height="2" fill="#A8692D" />
<rect x="132" y="84" width="2" height="2" fill="#8A491D" />
<rect x="138" y="84" width="2" height="2" fill="#A8692D" />
<rect x="142" y="84" width="2" height="2" fill="#C06522" />
<rect x="144" y="84" width="4" height="2" fill="#A8692D" />
<rect x="158" y="84" width="4" height="2" fill="#F8BE59" />
<rect x="162" y="84" width="2" height="2" fill="#C06522" />
<rect x="164" y="84" width="2" height="2" fill="#F8BE59" />
<rect x="166" y="84" width="2" height="2" fill="#C06522" />
<rect x="168" y="84" width="2" height="2" fill="#F8BE59" />
<rect x="170" y="84" width="2" height="2" fill="#F8C266" />
<rect x="172" y="84" width="2" height="2" fill="#F8BE59" />
<rect x="188" y="84" width="4" height="2" fill="#F7F7F7" />
<rect x="192" y="84" width="4" height="2" fill="#F4E3C6" />
<rect x="196" y="84" width="2" height="2" fill="#F7F7F7" />
</svg>